<svg width="55" height="61" viewBox="0 0 55 61" fill="none" xmlns="http://www.w3.org/2000/svg">
<path d="M6.20833 60.8753C4.53542 60.8753 3.1033 60.2797 1.91198 59.0883C0.72066 57.897 0.125 56.4649 0.125 54.792V12.2087C0.125 10.5357 0.72066 9.10362 1.91198 7.9123C3.1033 6.72098 4.53542 6.12533 6.20833 6.12533H18.9833C19.6424 4.30033 20.745 2.83019 22.2911 1.71491C23.8373 0.599631 25.5736 0.0419922 27.5 0.0419922C29.4264 0.0419922 31.1627 0.599631 32.7089 1.71491C34.255 2.83019 35.3576 4.30033 36.0167 6.12533H48.7917C50.4646 6.12533 51.8967 6.72098 53.088 7.9123C54.2793 9.10362 54.875 10.5357 54.875 12.2087V54.792C54.875 56.4649 54.2793 57.897 53.088 59.0883C51.8967 60.2797 50.4646 60.8753 48.7917 60.8753H6.20833ZM12.2917 48.7087H33.5833V42.6253H12.2917V48.7087ZM12.2917 36.542H42.7083V30.4587H12.2917V36.542ZM12.2917 24.3753H42.7083V18.292H12.2917V24.3753ZM27.5 9.92741C28.159 9.92741 28.704 9.71196 29.1349 9.28105C29.5658 8.85015 29.7812 8.30519 29.7812 7.64616C29.7812 6.98713 29.5658 6.44217 29.1349 6.01126C28.704 5.58036 28.159 5.36491 27.5 5.36491C26.841 5.36491 26.296 5.58036 25.8651 6.01126C25.4342 6.44217 25.2188 6.98713 25.2188 7.64616C25.2188 8.30519 25.4342 8.85015 25.8651 9.28105C26.296 9.71196 26.841 9.92741 27.5 9.92741Z" fill="#1A2338"/>
</svg>
