<svg width="73" height="73" viewBox="0 0 73 73" fill="none" xmlns="http://www.w3.org/2000/svg">
<mask id="mask0_573_906" style="mask-type:alpha" maskUnits="userSpaceOnUse" x="0" y="0" width="73" height="73">
<rect width="73" height="73" fill="#D9D9D9"/>
</mask>
<g mask="url(#mask0_573_906)">
<path d="M57.7916 69.9587L53.5333 65.7003L58.3239 60.8337H45.6249V54.7503H58.3239L53.4572 49.8837L57.7916 45.6253L69.9583 57.792L57.7916 69.9587ZM12.1666 60.8337C10.4937 60.8337 9.06155 60.238 7.87023 59.0467C6.67891 57.8554 6.08325 56.4232 6.08325 54.7503V18.2503C6.08325 16.5774 6.67891 15.1453 7.87023 13.954C9.06155 12.7627 10.4937 12.167 12.1666 12.167H60.8333C62.5062 12.167 63.9383 12.7627 65.1296 13.954C66.3209 15.1453 66.9166 16.5774 66.9166 18.2503V41.9753C65.5478 41.1642 64.0904 40.5559 62.5442 40.1503C60.998 39.7448 59.4138 39.542 57.7916 39.542C52.7221 39.542 48.4131 41.3163 44.8645 44.8649C41.3159 48.4135 39.5416 52.7225 39.5416 57.792V60.8337H12.1666ZM36.4999 39.542L60.8333 24.3337V18.2503L36.4999 33.4587L12.1666 18.2503V24.3337L36.4999 39.542Z" fill="#1A2338"/>
</g>
</svg>
