<svg width="73" height="73" viewBox="0 0 73 73" fill="none" xmlns="http://www.w3.org/2000/svg">
<mask id="mask0_573_903" style="mask-type:alpha" maskUnits="userSpaceOnUse" x="0" y="0" width="73" height="73">
<rect width="73" height="73" fill="#D9D9D9"/>
</mask>
<g mask="url(#mask0_573_903)">
<path d="M57.7917 36.3477C57.7917 30.4164 55.7259 25.385 51.5943 21.2534C47.4627 17.1218 42.4313 15.056 36.5 15.056V8.97266C40.3021 8.97266 43.8634 9.69505 47.1839 11.1398C50.5043 12.5846 53.3939 14.5364 55.8526 16.9951C58.3113 19.4537 60.263 22.3433 61.7078 25.6638C63.1526 28.9843 63.875 32.5456 63.875 36.3477H57.7917ZM45.625 36.3477C45.625 33.8129 44.7378 31.6584 42.9635 29.8841C41.1892 28.1098 39.0347 27.2227 36.5 27.2227V21.1393C40.7076 21.1393 44.2943 22.6221 47.2599 25.5878C50.2255 28.5534 51.7083 32.14 51.7083 36.3477H45.625ZM60.6813 63.8747C54.3444 63.8747 48.0837 62.4933 41.899 59.7305C35.7142 56.9676 30.0872 53.0515 25.0177 47.982C19.9483 42.9126 16.0321 37.2855 13.2693 31.1008C10.5064 24.9161 9.125 18.6553 9.125 12.3185C9.125 11.406 9.42917 10.6456 10.0375 10.0372C10.6458 9.42891 11.4063 9.12474 12.3188 9.12474H24.6375C25.3472 9.12474 25.9809 9.36554 26.5385 9.84714C27.0962 10.3287 27.4257 10.899 27.5271 11.5581L29.5042 22.2039C29.6056 23.015 29.5802 23.6994 29.4281 24.257C29.276 24.8147 28.9972 25.2963 28.5917 25.7018L21.2156 33.1539C22.2295 35.0296 23.4335 36.8419 24.8276 38.5909C26.2217 40.3398 27.7552 42.0254 29.4281 43.6477C30.9997 45.2192 32.6472 46.6767 34.3708 48.0201C36.0944 49.3635 37.9194 50.5928 39.8458 51.7081L46.9938 44.5602C47.45 44.1039 48.0457 43.7617 48.7807 43.5336C49.5158 43.3055 50.2382 43.2421 50.9479 43.3435L61.4417 45.4727C62.1514 45.6754 62.7344 46.043 63.1906 46.5753C63.6469 47.1076 63.875 47.7032 63.875 48.3622V60.681C63.875 61.5935 63.5708 62.3539 62.9625 62.9622C62.3542 63.5706 61.5938 63.8747 60.6813 63.8747Z" fill="#1A2338"/>
</g>
</svg>
